# xmcd
#
# Track frame offsets:
#	150
#	1425
#	26527
#	48534
#	69673
#	95499
#	111621
#	128932
#	147455
#	164374
#	186851
#	207407
#
# Disc length: 3031 seconds
# Revision: 0
# Processed by: cddbd v1.5.2PL0 Copyright (c) Steve Scherf et al.
# Submitted via: dBpowerAMP V12.0
#
DISCID=b60bd50c
DTITLE=Jonno Zilber - Winter Blues: Live
DYEAR=2013
DGENRE=Blues
TTITLE0=Haiku
TTITLE1=Winter Blues
TTITLE2=Somthin' so Fine
TTITLE3=Never Hear The Words I Sing
TTITLE4=$50 Wig
TTITLE5=Second Chances
TTITLE6=I Cry Alone
TTITLE7=Before I Knew Her Name
TTITLE8=Somethin' so Fine (Reprise)
TTITLE9=Can't Sleep
TTITLE10=Same Thing
TTITLE11=Winter Blues (For Dancers Only)
EXTD=
EXTT0=
EXTT1=
EXTT2=
EXTT3=
EXTT4=
EXTT5=
EXTT6=
EXTT7=
EXTT8=
EXTT9=
EXTT10=
EXTT11=
PLAYORDER=
